Coordinates
version=1
nRows=34
nColumns=38
inDegrees=no

Units are S.I. units (second, meters, Newtons, ...)
If the header above contains a line with 'inDegrees', this indicates whether rotational values are in degrees (yes) or radians (no).

endheader
time	pelvis_tilt	pelvis_list	pelvis_rotation	pelvis_tx	pelvis_ty	pelvis_tz	hip_flexion_r	hip_adduction_r	hip_rotation_r	knee_angle_r	ankle_angle_r	subtalar_angle_r	mtp_angle_r	hip_flexion_l	hip_adduction_l	hip_rotation_l	knee_angle_l	ankle_angle_l	subtalar_angle_l	mtp_angle_l	lumbar_extension	lumbar_bending	lumbar_rotation	arm_flex_r	arm_add_r	arm_rot_r	elbow_flex_r	pro_sup_r	wrist_flex_r	wrist_dev_r	arm_flex_l	arm_add_l	arm_rot_l	elbow_flex_l	pro_sup_l	wrist_flex_l	wrist_dev_l
1.46	-0.407919	1.41237	-0.94059	0.787925	1.63256	0.907238	0.286242	1.76871e-05	-0.167052	0.142192	0.120435	0	0	-0.499212	-0.0628299	-0.0323208	0	0.240142	0	0	-0.272444	0.121641	-0.085542	-0.00946918	-0.292074	0.224873	0.944256	1.43021	0	0	-0.0793544	-0.351051	0.356362	0.709304	1.40182	0	0
1.47	-0.405857	1.41478	-0.936173	0.787813	1.62621	0.906198	0.281904	-0.000936724	-0.172877	0.139486	0.101029	0	0	-0.504205	-0.0666255	-0.027843	0	0.238809	0	0	-0.272138	0.122725	-0.0810926	-0.000235267	-0.295019	0.223924	0.955912	1.43557	0	0	-0.0787615	-0.350571	0.355908	0.707103	1.40279	0	0
1.48	-0.414102	1.41801	-0.921289	0.787502	1.61985	0.905145	0.278583	-0.00066745	-0.177677	0.133145	0.0691472	0	0	-0.506923	-0.071479	-0.0248721	0	0.238499	0	0	-0.270562	0.124436	-0.076808	0.011127	-0.29708	0.223045	0.964992	1.44281	0	0	-0.0779367	-0.349833	0.354078	0.702801	1.40571	0	0
1.49	-0.426208	1.42095	-0.902281	0.787101	1.61342	0.904187	0.275324	0.000272882	-0.183965	0.126309	0.0306042	0	0	-0.509373	-0.0771055	-0.0224789	0	0.238236	0	0	-0.269095	0.12663	-0.0724565	0.0242343	-0.298739	0.222617	0.973133	1.44843	0	0	-0.0771309	-0.349225	0.351982	0.69864	1.40804	0	0
1.5	-0.435515	1.42426	-0.88609	0.786655	1.60689	0.903338	0.273341	0.000182243	-0.192059	0.12289	-0.00587098	0	0	-0.511726	-0.0823745	-0.01952	0	0.236938	0	0	-0.267831	0.12809	-0.0682676	0.039397	-0.299919	0.223159	0.979862	1.45419	0	0	-0.0768	-0.348687	0.348808	0.696272	1.40889	0	0
1.51	-0.451208	1.42872	-0.864312	0.786173	1.59945	0.902131	0.274394	0.000695205	-0.199034	0.124655	-0.0368524	0	0	-0.523596	-0.0877606	-0.016624	0	0.232199	0	0	-0.263538	0.129079	-0.0642477	0.0541896	-0.301639	0.224939	0.987314	1.46249	0	0	-0.0782151	-0.348142	0.343559	0.694369	1.40573	0	0
1.52	-0.453676	1.43094	-0.854873	0.785601	1.59262	0.901602	0.274489	-4.69985e-05	-0.207696	0.131223	-0.0599547	0	0	-0.523597	-0.0935261	-0.0137124	0	0.230398	0	0	-0.264098	0.130368	-0.0602107	0.0709473	-0.303665	0.228094	0.995914	1.46945	0	0	-0.0790071	-0.348105	0.339017	0.693595	1.40129	0	0
1.53	-0.455526	1.43206	-0.844952	0.785156	1.58561	0.901315	0.274847	-0.00105792	-0.21842	0.142187	-0.0755635	0	0	-0.523598	-0.100398	-0.0106331	0	0.228718	0	0	-0.265268	0.132719	-0.0568333	0.0883976	-0.305936	0.231633	1.00512	1.47734	0	0	-0.0807885	-0.348889	0.337386	0.693992	1.40073	0	0
1.54	-0.455235	1.43251	-0.836666	0.784808	1.57849	0.901303	0.275123	-0.0025135	-0.229727	0.156084	-0.0867883	0	0	-0.523599	-0.107854	-0.00688731	8.68067e-08	0.225953	0	0	-0.267202	0.135659	-0.0536999	0.106914	-0.308381	0.235258	1.01329	1.48809	0	0	-0.0825216	-0.349135	0.334433	0.693664	1.40279	0	0
1.55	-0.452862	1.4319	-0.831027	0.784309	1.57135	0.901619	0.274837	-0.00356963	-0.241473	0.171667	-0.0958467	0	0	-0.523599	-0.11583	-0.00324942	1.34407e-06	0.222196	0	0	-0.270708	0.139042	-0.0498338	0.126989	-0.310874	0.240023	1.02067	1.4984	0	0	-0.083731	-0.348941	0.330071	0.692904	1.40451	0	0
1.56	-0.487371	1.43582	-0.788609	0.783575	1.5649	0.90175	0.281127	-0.00598086	-0.254406	0.184246	-0.101167	0	0	-0.523599	-0.123002	-0.0018119	0.00946794	0.217326	0	0	-0.270084	0.143463	-0.0459516	0.149273	-0.313678	0.245963	1.02888	1.5028	0	0	-0.0831964	-0.349153	0.328344	0.692977	1.40377	0	0
1.57	-0.48281	1.43199	-0.786403	0.782831	1.55743	0.902605	0.278221	-0.00487549	-0.267613	0.2019	-0.103744	0	0	-0.523599	-0.132536	-0.0115613	0.0282205	0.220172	0	0	-0.276485	0.148871	-0.0407428	0.171686	-0.316256	0.252121	1.03584	1.51706	0	0	-0.0849423	-0.349688	0.326416	0.693205	1.40156	0	0
1.58	-0.450749	1.42533	-0.809997	0.782042	1.54948	0.903984	0.270066	-0.00212302	-0.27707	0.221162	-0.105812	0	0	-0.523599	-0.145877	-0.0352088	0.0552698	0.230782	0	0	-0.286366	0.153128	-0.0357355	0.194008	-0.31865	0.259685	1.04212	1.52137	0	0	-0.0867194	-0.351035	0.326676	0.692909	1.40325	0	0
1.59	-0.440578	1.42498	-0.812284	0.781117	1.54195	0.905136	0.266797	-0.00235972	-0.283609	0.234188	-0.10562	0	0	-0.517969	-0.154781	-0.0411515	0.0820074	0.228356	0	0	-0.290749	0.155252	-0.0314583	0.21793	-0.319765	0.26743	1.04693	1.52316	0	0	-0.0873884	-0.352658	0.327593	0.692119	1.4033	0	0
1.6	-0.229609	1.45294	-1.02203	0.776826	1.53462	0.907496	0.278192	-0.0381676	-0.268857	0.25824	-0.0967858	0	0	-0.489113	-0.126046	-0.0430612	0.126005	0.214444	0	0	-0.291843	0.108079	-0.0286271	0.243297	-0.300041	0.264727	1.03199	1.52853	0	0	-0.0841179	-0.366662	0.327885	0.689825	1.40267	0	0
1.61	0.000256796	1.47116	-1.22599	0.778274	1.53092	0.909352	0.287554	-0.0804759	-0.287898	0.282299	-0.0892657	0	0	-0.429854	-0.11831	-0.099508	0.218762	0.228351	0	0	-0.294977	0.0855336	-0.0472091	0.274627	-0.295978	0.2671	1.02881	1.53522	0	0	-0.0745673	-0.369205	0.331169	0.684792	1.40103	0	0
1.62	-0.0531997	1.47672	-1.16548	0.776896	1.52279	0.909631	0.289252	-0.074577	-0.296666	0.289779	-0.084702	0	0	-0.403259	-0.135538	-0.116397	0.268526	0.230917	0	0	-0.289033	0.090982	-0.0413326	0.297526	-0.296148	0.274087	1.03076	1.54179	0	0	-0.0771156	-0.371445	0.333599	0.684937	1.3995	0	0
1.63	-0.192033	1.47299	-1.01615	0.776457	1.51497	0.909921	0.28101	-0.0574709	-0.311068	0.287561	-0.0825818	0	0	-0.383082	-0.164393	-0.127169	0.31416	0.232256	0	0	-0.287253	0.110771	-0.0360708	0.322274	-0.302057	0.285517	1.03833	1.54604	0	0	-0.0794536	-0.371174	0.338176	0.687054	1.39735	0	0
1.64	-0.212013	1.47759	-0.991364	0.774877	1.50722	0.9106	0.27815	-0.0532344	-0.314586	0.288109	-0.0765536	0	0	-0.360368	-0.175541	-0.130429	0.355917	0.221241	0	0	-0.284673	0.112141	-0.0280301	0.347641	-0.302592	0.294236	1.04071	1.54885	0	0	-0.08001	-0.374411	0.34375	0.688823	1.39472	0	0
1.65	-0.253143	1.4815	-0.945478	0.773507	1.4994	0.911166	0.274417	-0.0470161	-0.318622	0.286488	-0.0695815	0	0	-0.336271	-0.188301	-0.13235	0.398924	0.207246	0	0	-0.280966	0.115872	-0.0193863	0.373395	-0.303989	0.303569	1.04189	1.55106	0	0	-0.0807429	-0.376762	0.349889	0.690325	1.39166	0	0
1.66	-0.313332	1.48374	-0.878179	0.772396	1.49128	0.911784	0.267809	-0.0386895	-0.325813	0.281363	-0.0633976	0	0	-0.310654	-0.204112	-0.131466	0.443975	0.190101	0	0	-0.276237	0.122055	-0.0121534	0.398531	-0.305192	0.312929	1.04101	1.55304	0	0	-0.0817324	-0.378908	0.356881	0.691143	1.38838	0	0
1.67	-0.31911	1.46149	-0.884892	0.767045	1.48219	0.915088	0.234871	-0.00379737	-0.305588	0.261541	-0.0721161	0	0	-0.318728	-0.231692	-0.160406	0.47888	0.162112	0	0	-0.301129	0.131433	0.0183925	0.430149	-0.303297	0.322861	1.0386	1.55409	0	0	-0.0789134	-0.387088	0.365887	0.698898	1.38473	0	0
1.68	-0.467903	1.48642	-0.709129	0.770117	1.47535	0.912811	0.255972	-0.0190407	-0.336356	0.26933	-0.0568668	0	0	-0.249883	-0.237231	-0.121579	0.543308	0.143193	0	0	-0.265231	0.136478	0.0039049	0.451141	-0.308235	0.333919	1.03557	1.55473	0	0	-0.0818245	-0.383336	0.374766	0.692656	1.38007	0	0
1.69	-0.544521	1.48692	-0.626269	0.768998	1.46775	0.913287	0.251756	-0.00987991	-0.339887	0.266425	-0.0524402	0	0	-0.217326	-0.251436	-0.110739	0.59364	0.113818	0	0	-0.260626	0.143552	0.0136765	0.478496	-0.310551	0.344127	1.03177	1.55432	0	0	-0.0803859	-0.383937	0.381284	0.692235	1.37784	0	0
1.7	-0.636678	1.48657	-0.527202	0.767957	1.46031	0.913559	0.248794	-7.40526e-05	-0.343034	0.264053	-0.0470591	0	0	-0.180533	-0.266934	-0.0993492	0.647685	0.080184	0	0	-0.25503	0.151747	0.0231926	0.506496	-0.313313	0.355171	1.02624	1.55395	0	0	-0.0793316	-0.38446	0.387593	0.693811	1.37451	0	0
1.71	-0.718157	1.48521	-0.438757	0.766984	1.453	0.913819	0.245163	0.00932996	-0.34619	0.262009	-0.0411853	0	0	-0.1434	-0.281259	-0.0860236	0.701437	0.0447137	0	0	-0.250438	0.159792	0.0331437	0.534784	-0.316494	0.366145	1.02044	1.55346	0	0	-0.0781237	-0.384838	0.3935	0.696491	1.37066	0	0
1.72	-0.799657	1.48342	-0.35009	0.766015	1.44585	0.913964	0.24224	0.0184042	-0.349823	0.260278	-0.035562	0	0	-0.103986	-0.29444	-0.0710201	0.755536	0.00698523	0	0	-0.245665	0.167595	0.0433956	0.563514	-0.319725	0.377399	1.01329	1.55305	0	0	-0.0766897	-0.385103	0.399122	0.699607	1.36575	0	0
1.73	-0.868181	1.4815	-0.274255	0.765045	1.43886	0.914141	0.238674	0.0267967	-0.353738	0.257836	-0.0308346	0	0	-0.0641594	-0.305325	-0.0543402	0.808041	-0.0330965	0	0	-0.241946	0.174392	0.0539631	0.592606	-0.322576	0.387992	1.00445	1.55304	0	0	-0.0748233	-0.38503	0.402883	0.702733	1.36312	0	0
1.74	-0.701975	1.46361	-0.45594	0.759745	1.43045	0.917709	0.202718	0.0569132	-0.326859	0.240774	-0.0399074	0	0	-0.0713607	-0.328823	-0.0736782	0.840511	-0.0814151	0	0	-0.275441	0.178585	0.091055	0.627762	-0.321744	0.396276	0.992408	1.55382	0	0	-0.0684147	-0.391099	0.406824	0.712885	1.36189	0	0
1.75	-0.718051	1.46209	-0.433887	0.758537	1.42377	0.918316	0.193639	0.0652387	-0.326567	0.234076	-0.0389705	0	0	-0.0360507	-0.337002	-0.0577952	0.888537	-0.126639	0	0	-0.277732	0.182588	0.102994	0.659811	-0.323515	0.407585	0.975488	1.5596	0	0	-0.0666533	-0.392	0.408888	0.720165	1.35341	0	0
1.76	-0.731982	1.46165	-0.413405	0.757441	1.41718	0.918864	0.185409	0.0718037	-0.329631	0.228647	-0.0361456	0	0	-0.000196298	-0.342602	-0.0408083	0.935121	-0.168424	0	0	-0.279625	0.185331	0.114499	0.690882	-0.325223	0.417603	0.958005	1.56797	0	0	-0.0645072	-0.392188	0.408813	0.726139	1.33967	0	0
1.77	-0.729304	1.46123	-0.409896	0.756401	1.41065	0.919583	0.175109	0.0778077	-0.332231	0.222417	-0.033261	0	0	0.0325097	-0.346153	-0.0259836	0.978525	-0.202514	0	0	-0.283518	0.186898	0.126809	0.720895	-0.327464	0.42688	0.940996	1.5708	0	0	-0.0616181	-0.391916	0.409052	0.731179	1.33325	0	0
1.78	-0.974657	1.4764	-0.13447	0.759871	1.40629	0.91659	0.201454	0.060735	-0.370025	0.233119	-0.0146489	0	0	0.115068	-0.328065	0.0245742	1.03796	-0.215111	0	0	-0.248424	0.190743	0.11086	0.745988	-0.332416	0.439659	0.91989	1.5708	0	0	-0.0639752	-0.384028	0.405227	0.729011	1.32191	0	0
1.79	-0.948038	1.47743	-0.155574	0.758866	1.40006	0.917548	0.189453	0.0652144	-0.371718	0.226568	-0.0119819	0	0	0.141211	-0.326208	0.0340238	1.07138	-0.215844	0	0	-0.255158	0.189978	0.123839	0.775351	-0.334584	0.448438	0.899289	1.5708	0	0	-0.0608106	-0.383407	0.40479	0.734282	1.3169	0	0
